{
	"patcher" : 	{
		"fileversion" : 1,
		"rect" : [ 393.0, 425.0, 415.0, 187.0 ],
		"bglocked" : 0,
		"defrect" : [ 393.0, 425.0, 415.0, 187.0 ],
		"openrect" : [ 0.0, 0.0, 0.0, 0.0 ],
		"openinpresentation" : 1,
		"default_fontsize" : 10.0,
		"default_fontface" : 0,
		"default_fontname" : "Arial Bold",
		"gridonopen" : 0,
		"gridsize" : [ 4.0, 4.0 ],
		"gridsnaponopen" : 0,
		"toolbarvisible" : 1,
		"boxanimatetime" : 200,
		"imprint" : 0,
		"enablehscroll" : 1,
		"enablevscroll" : 1,
		"devicewidth" : 0.0,
		"boxes" : [ 			{
				"box" : 				{
					"maxclass" : "newobj",
					"text" : "t b i",
					"numinlets" : 1,
					"fontsize" : 10.0,
					"numoutlets" : 2,
					"patching_rect" : [ 368.0, 36.0, 32.5, 18.0 ],
					"outlettype" : [ "bang", "int" ],
					"fontname" : "Arial Bold",
					"id" : "obj-17"
				}

			}
, 			{
				"box" : 				{
					"maxclass" : "newobj",
					"text" : "t b i",
					"numinlets" : 1,
					"fontsize" : 10.0,
					"numoutlets" : 2,
					"patching_rect" : [ 328.0, 60.0, 34.5, 18.0 ],
					"outlettype" : [ "bang", "int" ],
					"fontname" : "Arial Bold",
					"id" : "obj-16"
				}

			}
, 			{
				"box" : 				{
					"maxclass" : "bpatcher",
					"varname" : "FG.M4L.ParamStorage.Button[7]",
					"numinlets" : 2,
					"presentation_rect" : [ 112.0, 0.0, 16.0, 16.0 ],
					"numoutlets" : 0,
					"args" : [  ],
					"name" : "ParamStorage.Button.0.1.2-r5.maxpat",
					"patching_rect" : [ 288.0, 152.0, 16.0, 16.0 ],
					"presentation" : 1,
					"id" : "obj-15"
				}

			}
, 			{
				"box" : 				{
					"maxclass" : "bpatcher",
					"varname" : "FG.M4L.ParamStorage.Button[6]",
					"numinlets" : 2,
					"presentation_rect" : [ 96.0, 0.0, 16.0, 16.0 ],
					"numoutlets" : 0,
					"args" : [  ],
					"name" : "ParamStorage.Button.0.1.2-r5.maxpat",
					"patching_rect" : [ 248.0, 152.0, 16.0, 16.0 ],
					"presentation" : 1,
					"id" : "obj-14"
				}

			}
, 			{
				"box" : 				{
					"maxclass" : "bpatcher",
					"varname" : "FG.M4L.ParamStorage.Button[5]",
					"numinlets" : 2,
					"presentation_rect" : [ 80.0, 0.0, 16.0, 16.0 ],
					"numoutlets" : 0,
					"args" : [  ],
					"name" : "ParamStorage.Button.0.1.2-r5.maxpat",
					"patching_rect" : [ 208.0, 152.0, 16.0, 16.0 ],
					"presentation" : 1,
					"id" : "obj-13"
				}

			}
, 			{
				"box" : 				{
					"maxclass" : "bpatcher",
					"varname" : "FG.M4L.ParamStorage.Button[4]",
					"numinlets" : 2,
					"presentation_rect" : [ 64.0, 0.0, 16.0, 16.0 ],
					"numoutlets" : 0,
					"args" : [  ],
					"name" : "ParamStorage.Button.0.1.2-r5.maxpat",
					"patching_rect" : [ 168.0, 152.0, 16.0, 16.0 ],
					"presentation" : 1,
					"id" : "obj-11"
				}

			}
, 			{
				"box" : 				{
					"maxclass" : "bpatcher",
					"varname" : "FG.M4L.ParamStorage.Button[3]",
					"numinlets" : 2,
					"presentation_rect" : [ 48.0, 0.0, 16.0, 16.0 ],
					"numoutlets" : 0,
					"args" : [  ],
					"name" : "ParamStorage.Button.0.1.2-r5.maxpat",
					"patching_rect" : [ 128.0, 152.0, 16.0, 16.0 ],
					"presentation" : 1,
					"id" : "obj-10"
				}

			}
, 			{
				"box" : 				{
					"maxclass" : "bpatcher",
					"varname" : "FG.M4L.ParamStorage.Button[2]",
					"numinlets" : 2,
					"presentation_rect" : [ 32.0, 0.0, 16.0, 16.0 ],
					"numoutlets" : 0,
					"args" : [  ],
					"name" : "ParamStorage.Button.0.1.2-r5.maxpat",
					"patching_rect" : [ 88.0, 152.0, 16.0, 16.0 ],
					"presentation" : 1,
					"id" : "obj-9"
				}

			}
, 			{
				"box" : 				{
					"maxclass" : "bpatcher",
					"varname" : "FG.M4L.ParamStorage.Button[1]",
					"numinlets" : 2,
					"presentation_rect" : [ 16.0, 0.0, 16.0, 16.0 ],
					"numoutlets" : 0,
					"args" : [  ],
					"name" : "ParamStorage.Button.0.1.2-r5.maxpat",
					"patching_rect" : [ 48.0, 152.0, 16.0, 16.0 ],
					"presentation" : 1,
					"id" : "obj-8"
				}

			}
, 			{
				"box" : 				{
					"maxclass" : "inlet",
					"numinlets" : 0,
					"numoutlets" : 1,
					"patching_rect" : [ 368.0, 8.0, 25.0, 25.0 ],
					"outlettype" : [ "" ],
					"id" : "obj-2",
					"comment" : "Row Number (use for last row)"
				}

			}
, 			{
				"box" : 				{
					"maxclass" : "newobj",
					"text" : "+ 0",
					"numinlets" : 2,
					"fontsize" : 10.0,
					"numoutlets" : 1,
					"patching_rect" : [ 288.0, 128.0, 32.5, 18.0 ],
					"outlettype" : [ "int" ],
					"fontname" : "Arial Bold",
					"id" : "obj-36"
				}

			}
, 			{
				"box" : 				{
					"maxclass" : "newobj",
					"text" : "+ 0",
					"numinlets" : 2,
					"fontsize" : 10.0,
					"numoutlets" : 1,
					"patching_rect" : [ 248.0, 128.0, 32.5, 18.0 ],
					"outlettype" : [ "int" ],
					"fontname" : "Arial Bold",
					"id" : "obj-35"
				}

			}
, 			{
				"box" : 				{
					"maxclass" : "newobj",
					"text" : "+ 0",
					"numinlets" : 2,
					"fontsize" : 10.0,
					"numoutlets" : 1,
					"patching_rect" : [ 208.0, 128.0, 32.5, 18.0 ],
					"outlettype" : [ "int" ],
					"fontname" : "Arial Bold",
					"id" : "obj-34"
				}

			}
, 			{
				"box" : 				{
					"maxclass" : "newobj",
					"text" : "+ 0",
					"numinlets" : 2,
					"fontsize" : 10.0,
					"numoutlets" : 1,
					"patching_rect" : [ 168.0, 128.0, 32.5, 18.0 ],
					"outlettype" : [ "int" ],
					"fontname" : "Arial Bold",
					"id" : "obj-33"
				}

			}
, 			{
				"box" : 				{
					"maxclass" : "newobj",
					"text" : "+ 0",
					"numinlets" : 2,
					"fontsize" : 10.0,
					"numoutlets" : 1,
					"patching_rect" : [ 128.0, 128.0, 32.5, 18.0 ],
					"outlettype" : [ "int" ],
					"fontname" : "Arial Bold",
					"id" : "obj-32"
				}

			}
, 			{
				"box" : 				{
					"maxclass" : "newobj",
					"text" : "+ 0",
					"numinlets" : 2,
					"fontsize" : 10.0,
					"numoutlets" : 1,
					"patching_rect" : [ 88.0, 128.0, 32.5, 18.0 ],
					"outlettype" : [ "int" ],
					"fontname" : "Arial Bold",
					"id" : "obj-30"
				}

			}
, 			{
				"box" : 				{
					"maxclass" : "newobj",
					"text" : "+ 0",
					"numinlets" : 2,
					"fontsize" : 10.0,
					"numoutlets" : 1,
					"patching_rect" : [ 48.0, 128.0, 32.5, 18.0 ],
					"outlettype" : [ "int" ],
					"fontname" : "Arial Bold",
					"id" : "obj-28"
				}

			}
, 			{
				"box" : 				{
					"maxclass" : "newobj",
					"text" : "+ 0",
					"numinlets" : 2,
					"fontsize" : 10.0,
					"numoutlets" : 1,
					"patching_rect" : [ 8.0, 128.0, 32.5, 18.0 ],
					"outlettype" : [ "int" ],
					"fontname" : "Arial Bold",
					"id" : "obj-7"
				}

			}
, 			{
				"box" : 				{
					"maxclass" : "newobj",
					"text" : "* 8",
					"numinlets" : 2,
					"fontsize" : 10.0,
					"numoutlets" : 1,
					"patching_rect" : [ 344.0, 104.0, 32.5, 18.0 ],
					"outlettype" : [ "int" ],
					"fontname" : "Arial Bold",
					"id" : "obj-4"
				}

			}
, 			{
				"box" : 				{
					"maxclass" : "newobj",
					"text" : "- 1",
					"numinlets" : 2,
					"fontsize" : 10.0,
					"numoutlets" : 1,
					"patching_rect" : [ 344.0, 80.0, 32.5, 18.0 ],
					"outlettype" : [ "int" ],
					"fontname" : "Arial Bold",
					"id" : "obj-3"
				}

			}
, 			{
				"box" : 				{
					"maxclass" : "inlet",
					"numinlets" : 0,
					"numoutlets" : 1,
					"patching_rect" : [ 328.0, 8.0, 25.0, 25.0 ],
					"outlettype" : [ "" ],
					"id" : "obj-1",
					"comment" : "Row number"
				}

			}
, 			{
				"box" : 				{
					"maxclass" : "bpatcher",
					"varname" : "FG.M4L.ParamStorage.Button[13]",
					"numinlets" : 2,
					"presentation_rect" : [ 0.0, 0.0, 16.0, 16.0 ],
					"numoutlets" : 0,
					"args" : [  ],
					"name" : "ParamStorage.Button.0.1.2-r5.maxpat",
					"patching_rect" : [ 8.0, 152.0, 16.0, 16.0 ],
					"presentation" : 1,
					"id" : "obj-191"
				}

			}
, 			{
				"box" : 				{
					"maxclass" : "message",
					"text" : "8",
					"numinlets" : 2,
					"fontsize" : 10.0,
					"numoutlets" : 1,
					"patching_rect" : [ 288.0, 104.0, 32.5, 16.0 ],
					"outlettype" : [ "" ],
					"fontname" : "Arial Bold",
					"id" : "obj-19"
				}

			}
, 			{
				"box" : 				{
					"maxclass" : "message",
					"text" : "7",
					"numinlets" : 2,
					"fontsize" : 10.0,
					"numoutlets" : 1,
					"patching_rect" : [ 248.0, 104.0, 32.5, 16.0 ],
					"outlettype" : [ "" ],
					"fontname" : "Arial Bold",
					"id" : "obj-25"
				}

			}
, 			{
				"box" : 				{
					"maxclass" : "message",
					"text" : "6",
					"numinlets" : 2,
					"fontsize" : 10.0,
					"numoutlets" : 1,
					"patching_rect" : [ 208.0, 104.0, 32.5, 16.0 ],
					"outlettype" : [ "" ],
					"fontname" : "Arial Bold",
					"id" : "obj-27"
				}

			}
, 			{
				"box" : 				{
					"maxclass" : "message",
					"text" : "5",
					"numinlets" : 2,
					"fontsize" : 10.0,
					"numoutlets" : 1,
					"patching_rect" : [ 168.0, 104.0, 32.5, 16.0 ],
					"outlettype" : [ "" ],
					"fontname" : "Arial Bold",
					"id" : "obj-29"
				}

			}
, 			{
				"box" : 				{
					"maxclass" : "message",
					"text" : "4",
					"numinlets" : 2,
					"fontsize" : 10.0,
					"numoutlets" : 1,
					"patching_rect" : [ 128.0, 104.0, 32.5, 16.0 ],
					"outlettype" : [ "" ],
					"fontname" : "Arial Bold",
					"id" : "obj-6"
				}

			}
, 			{
				"box" : 				{
					"maxclass" : "message",
					"text" : "3",
					"numinlets" : 2,
					"fontsize" : 10.0,
					"numoutlets" : 1,
					"patching_rect" : [ 88.0, 104.0, 32.5, 16.0 ],
					"outlettype" : [ "" ],
					"fontname" : "Arial Bold",
					"id" : "obj-12"
				}

			}
, 			{
				"box" : 				{
					"maxclass" : "message",
					"text" : "2",
					"numinlets" : 2,
					"fontsize" : 10.0,
					"numoutlets" : 1,
					"patching_rect" : [ 48.0, 104.0, 32.5, 16.0 ],
					"outlettype" : [ "" ],
					"fontname" : "Arial Bold",
					"id" : "obj-5"
				}

			}
, 			{
				"box" : 				{
					"maxclass" : "message",
					"text" : "1",
					"numinlets" : 2,
					"fontsize" : 10.0,
					"numoutlets" : 1,
					"patching_rect" : [ 8.0, 104.0, 32.5, 16.0 ],
					"outlettype" : [ "" ],
					"fontname" : "Arial Bold",
					"id" : "obj-102"
				}

			}
 ],
		"lines" : [ 			{
				"patchline" : 				{
					"source" : [ "obj-17", 0 ],
					"destination" : [ "obj-15", 1 ],
					"hidden" : 0,
					"midpoints" : [ 377.5, 148.5, 298.0, 148.5 ]
				}

			}
, 			{
				"patchline" : 				{
					"source" : [ "obj-36", 0 ],
					"destination" : [ "obj-15", 0 ],
					"hidden" : 0,
					"midpoints" : [  ]
				}

			}
, 			{
				"patchline" : 				{
					"source" : [ "obj-35", 0 ],
					"destination" : [ "obj-14", 0 ],
					"hidden" : 0,
					"midpoints" : [  ]
				}

			}
, 			{
				"patchline" : 				{
					"source" : [ "obj-34", 0 ],
					"destination" : [ "obj-13", 0 ],
					"hidden" : 0,
					"midpoints" : [  ]
				}

			}
, 			{
				"patchline" : 				{
					"source" : [ "obj-33", 0 ],
					"destination" : [ "obj-11", 0 ],
					"hidden" : 0,
					"midpoints" : [  ]
				}

			}
, 			{
				"patchline" : 				{
					"source" : [ "obj-32", 0 ],
					"destination" : [ "obj-10", 0 ],
					"hidden" : 0,
					"midpoints" : [  ]
				}

			}
, 			{
				"patchline" : 				{
					"source" : [ "obj-30", 0 ],
					"destination" : [ "obj-9", 0 ],
					"hidden" : 0,
					"midpoints" : [  ]
				}

			}
, 			{
				"patchline" : 				{
					"source" : [ "obj-28", 0 ],
					"destination" : [ "obj-8", 0 ],
					"hidden" : 0,
					"midpoints" : [  ]
				}

			}
, 			{
				"patchline" : 				{
					"source" : [ "obj-7", 0 ],
					"destination" : [ "obj-191", 0 ],
					"hidden" : 0,
					"midpoints" : [  ]
				}

			}
, 			{
				"patchline" : 				{
					"source" : [ "obj-17", 1 ],
					"destination" : [ "obj-16", 0 ],
					"hidden" : 0,
					"midpoints" : [ 391.0, 56.5, 337.5, 56.5 ]
				}

			}
, 			{
				"patchline" : 				{
					"source" : [ "obj-2", 0 ],
					"destination" : [ "obj-17", 0 ],
					"hidden" : 0,
					"midpoints" : [  ]
				}

			}
, 			{
				"patchline" : 				{
					"source" : [ "obj-16", 0 ],
					"destination" : [ "obj-19", 0 ],
					"hidden" : 0,
					"midpoints" : [ 337.5, 88.0, 297.5, 88.0 ]
				}

			}
, 			{
				"patchline" : 				{
					"source" : [ "obj-16", 0 ],
					"destination" : [ "obj-25", 0 ],
					"hidden" : 0,
					"midpoints" : [ 337.5, 88.0, 257.5, 88.0 ]
				}

			}
, 			{
				"patchline" : 				{
					"source" : [ "obj-16", 0 ],
					"destination" : [ "obj-27", 0 ],
					"hidden" : 0,
					"midpoints" : [ 337.5, 88.0, 217.5, 88.0 ]
				}

			}
, 			{
				"patchline" : 				{
					"source" : [ "obj-16", 0 ],
					"destination" : [ "obj-29", 0 ],
					"hidden" : 0,
					"midpoints" : [ 337.5, 88.0, 177.5, 88.0 ]
				}

			}
, 			{
				"patchline" : 				{
					"source" : [ "obj-16", 0 ],
					"destination" : [ "obj-6", 0 ],
					"hidden" : 0,
					"midpoints" : [ 337.5, 88.0, 137.5, 88.0 ]
				}

			}
, 			{
				"patchline" : 				{
					"source" : [ "obj-16", 0 ],
					"destination" : [ "obj-12", 0 ],
					"hidden" : 0,
					"midpoints" : [ 337.5, 88.0, 97.5, 88.0 ]
				}

			}
, 			{
				"patchline" : 				{
					"source" : [ "obj-16", 0 ],
					"destination" : [ "obj-5", 0 ],
					"hidden" : 0,
					"midpoints" : [ 337.5, 88.0, 57.5, 88.0 ]
				}

			}
, 			{
				"patchline" : 				{
					"source" : [ "obj-16", 0 ],
					"destination" : [ "obj-102", 0 ],
					"hidden" : 0,
					"midpoints" : [ 337.5, 88.0, 17.5, 88.0 ]
				}

			}
, 			{
				"patchline" : 				{
					"source" : [ "obj-1", 0 ],
					"destination" : [ "obj-16", 0 ],
					"hidden" : 0,
					"midpoints" : [  ]
				}

			}
, 			{
				"patchline" : 				{
					"source" : [ "obj-16", 1 ],
					"destination" : [ "obj-3", 0 ],
					"hidden" : 0,
					"midpoints" : [  ]
				}

			}
, 			{
				"patchline" : 				{
					"source" : [ "obj-102", 0 ],
					"destination" : [ "obj-7", 0 ],
					"hidden" : 0,
					"midpoints" : [  ]
				}

			}
, 			{
				"patchline" : 				{
					"source" : [ "obj-5", 0 ],
					"destination" : [ "obj-28", 0 ],
					"hidden" : 0,
					"midpoints" : [  ]
				}

			}
, 			{
				"patchline" : 				{
					"source" : [ "obj-12", 0 ],
					"destination" : [ "obj-30", 0 ],
					"hidden" : 0,
					"midpoints" : [  ]
				}

			}
, 			{
				"patchline" : 				{
					"source" : [ "obj-6", 0 ],
					"destination" : [ "obj-32", 0 ],
					"hidden" : 0,
					"midpoints" : [  ]
				}

			}
, 			{
				"patchline" : 				{
					"source" : [ "obj-29", 0 ],
					"destination" : [ "obj-33", 0 ],
					"hidden" : 0,
					"midpoints" : [  ]
				}

			}
, 			{
				"patchline" : 				{
					"source" : [ "obj-27", 0 ],
					"destination" : [ "obj-34", 0 ],
					"hidden" : 0,
					"midpoints" : [  ]
				}

			}
, 			{
				"patchline" : 				{
					"source" : [ "obj-25", 0 ],
					"destination" : [ "obj-35", 0 ],
					"hidden" : 0,
					"midpoints" : [  ]
				}

			}
, 			{
				"patchline" : 				{
					"source" : [ "obj-19", 0 ],
					"destination" : [ "obj-36", 0 ],
					"hidden" : 0,
					"midpoints" : [  ]
				}

			}
, 			{
				"patchline" : 				{
					"source" : [ "obj-4", 0 ],
					"destination" : [ "obj-36", 1 ],
					"hidden" : 0,
					"midpoints" : [ 353.5, 124.5, 311.0, 124.5 ]
				}

			}
, 			{
				"patchline" : 				{
					"source" : [ "obj-4", 0 ],
					"destination" : [ "obj-35", 1 ],
					"hidden" : 0,
					"midpoints" : [ 353.5, 124.5, 271.0, 124.5 ]
				}

			}
, 			{
				"patchline" : 				{
					"source" : [ "obj-4", 0 ],
					"destination" : [ "obj-34", 1 ],
					"hidden" : 0,
					"midpoints" : [ 353.5, 124.5, 231.0, 124.5 ]
				}

			}
, 			{
				"patchline" : 				{
					"source" : [ "obj-4", 0 ],
					"destination" : [ "obj-33", 1 ],
					"hidden" : 0,
					"midpoints" : [ 353.5, 124.5, 191.0, 124.5 ]
				}

			}
, 			{
				"patchline" : 				{
					"source" : [ "obj-4", 0 ],
					"destination" : [ "obj-32", 1 ],
					"hidden" : 0,
					"midpoints" : [ 353.5, 124.5, 151.0, 124.5 ]
				}

			}
, 			{
				"patchline" : 				{
					"source" : [ "obj-4", 0 ],
					"destination" : [ "obj-30", 1 ],
					"hidden" : 0,
					"midpoints" : [ 353.5, 124.5, 111.0, 124.5 ]
				}

			}
, 			{
				"patchline" : 				{
					"source" : [ "obj-4", 0 ],
					"destination" : [ "obj-28", 1 ],
					"hidden" : 0,
					"midpoints" : [ 353.5, 124.5, 71.0, 124.5 ]
				}

			}
, 			{
				"patchline" : 				{
					"source" : [ "obj-4", 0 ],
					"destination" : [ "obj-7", 1 ],
					"hidden" : 0,
					"midpoints" : [ 353.5, 124.5, 31.0, 124.5 ]
				}

			}
, 			{
				"patchline" : 				{
					"source" : [ "obj-3", 0 ],
					"destination" : [ "obj-4", 0 ],
					"hidden" : 0,
					"midpoints" : [  ]
				}

			}
 ],
		"parameters" : 		{
			"obj-10::obj-26::obj-7" : [ "saved-string[2]", "saved-string", 0 ],
			"obj-15::obj-26::obj-7" : [ "saved-string[5]", "saved-string", 0 ],
			"obj-9::obj-56" : [ "bound-rownum[5]", "bound-rownum", 0 ],
			"obj-15::obj-56" : [ "bound-rownum", "bound-rownum", 0 ],
			"obj-10::obj-168" : [ "live.toggle[3]", "live.toggle[1]", 0 ],
			"obj-8::obj-26::obj-7" : [ "saved-string", "saved-string", 0 ],
			"obj-8::obj-147::obj-4::obj-19" : [ "saved-int", "saved-int", 0 ],
			"obj-15::obj-147::obj-4::obj-19" : [ "saved-int[10]", "saved-int", 0 ],
			"obj-11::obj-56" : [ "bound-rownum[3]", "bound-rownum", 0 ],
			"obj-191::obj-56" : [ "bound-rownum[7]", "bound-rownum", 0 ],
			"obj-13::obj-168" : [ "live.toggle[5]", "live.toggle[1]", 0 ],
			"obj-13::obj-26::obj-7" : [ "saved-string[4]", "saved-string", 0 ],
			"obj-15::obj-168" : [ "live.toggle[17]", "live.toggle[1]", 0 ],
			"obj-191::obj-147::obj-4::obj-19" : [ "saved-int[8]", "saved-int", 0 ],
			"obj-14::obj-26::obj-7" : [ "saved-string[16]", "saved-string", 0 ],
			"obj-13::obj-56" : [ "bound-rownum[2]", "bound-rownum", 0 ],
			"obj-10::obj-56" : [ "bound-rownum[4]", "bound-rownum", 0 ],
			"obj-14::obj-147::obj-4::obj-19" : [ "saved-int[9]", "saved-int", 0 ],
			"obj-9::obj-147::obj-4::obj-19" : [ "saved-int[1]", "saved-int", 0 ],
			"obj-13::obj-147::obj-4::obj-19" : [ "saved-int[4]", "saved-int", 0 ],
			"obj-11::obj-168" : [ "live.toggle[4]", "live.toggle[1]", 0 ],
			"obj-8::obj-168" : [ "live.toggle[1]", "live.toggle[1]", 0 ],
			"obj-191::obj-26::obj-7" : [ "saved-string[15]", "saved-string", 0 ],
			"obj-191::obj-168" : [ "live.toggle[16]", "live.toggle[1]", 0 ],
			"obj-14::obj-56" : [ "bound-rownum[1]", "bound-rownum", 0 ],
			"obj-8::obj-56" : [ "bound-rownum[6]", "bound-rownum", 0 ],
			"obj-14::obj-168" : [ "live.toggle[6]", "live.toggle[1]", 0 ],
			"obj-9::obj-26::obj-7" : [ "saved-string[1]", "saved-string", 0 ],
			"obj-9::obj-168" : [ "live.toggle[2]", "live.toggle[1]", 0 ],
			"obj-11::obj-147::obj-4::obj-19" : [ "saved-int[3]", "saved-int", 0 ],
			"obj-11::obj-26::obj-7" : [ "saved-string[3]", "saved-string", 0 ],
			"obj-10::obj-147::obj-4::obj-19" : [ "saved-int[2]", "saved-int", 0 ]
		}

	}

}
