{
	"patcher" : 	{
		"fileversion" : 1,
		"rect" : [ 908.0, 668.0, 747.0, 187.0 ],
		"bglocked" : 0,
		"defrect" : [ 908.0, 668.0, 747.0, 187.0 ],
		"openrect" : [ 0.0, 0.0, 0.0, 0.0 ],
		"openinpresentation" : 1,
		"default_fontsize" : 10.0,
		"default_fontface" : 0,
		"default_fontname" : "Arial Bold",
		"gridonopen" : 0,
		"gridsize" : [ 4.0, 4.0 ],
		"gridsnaponopen" : 0,
		"toolbarvisible" : 1,
		"boxanimatetime" : 200,
		"imprint" : 0,
		"enablehscroll" : 1,
		"enablevscroll" : 1,
		"devicewidth" : 0.0,
		"boxes" : [ 			{
				"box" : 				{
					"maxclass" : "newobj",
					"text" : "t b i",
					"fontname" : "Arial Bold",
					"id" : "obj-17",
					"numinlets" : 1,
					"fontsize" : 10.0,
					"numoutlets" : 2,
					"patching_rect" : [ 420.0, 36.0, 32.5, 18.0 ],
					"outlettype" : [ "bang", "int" ]
				}

			}
, 			{
				"box" : 				{
					"maxclass" : "newobj",
					"text" : "t b i",
					"fontname" : "Arial Bold",
					"id" : "obj-16",
					"numinlets" : 1,
					"fontsize" : 10.0,
					"numoutlets" : 2,
					"patching_rect" : [ 380.0, 60.0, 34.5, 18.0 ],
					"outlettype" : [ "bang", "int" ]
				}

			}
, 			{
				"box" : 				{
					"maxclass" : "bpatcher",
					"varname" : "FG.M4L.ParamStorage.Button[7]",
					"id" : "obj-15",
					"numinlets" : 3,
					"presentation_rect" : [ 112.0, 0.0, 16.0, 16.0 ],
					"args" : [  ],
					"numoutlets" : 0,
					"name" : "ParamStorage.Button.maxpat",
					"patching_rect" : [ 340.0, 152.0, 16.0, 16.0 ],
					"presentation" : 1
				}

			}
, 			{
				"box" : 				{
					"maxclass" : "bpatcher",
					"varname" : "FG.M4L.ParamStorage.Button[6]",
					"id" : "obj-14",
					"numinlets" : 3,
					"presentation_rect" : [ 96.0, 0.0, 16.0, 16.0 ],
					"args" : [  ],
					"numoutlets" : 0,
					"name" : "ParamStorage.Button.maxpat",
					"patching_rect" : [ 300.0, 152.0, 16.0, 16.0 ],
					"presentation" : 1
				}

			}
, 			{
				"box" : 				{
					"maxclass" : "bpatcher",
					"varname" : "FG.M4L.ParamStorage.Button[5]",
					"id" : "obj-13",
					"numinlets" : 3,
					"presentation_rect" : [ 80.0, 0.0, 16.0, 16.0 ],
					"args" : [  ],
					"numoutlets" : 0,
					"name" : "ParamStorage.Button.maxpat",
					"patching_rect" : [ 260.0, 152.0, 16.0, 16.0 ],
					"presentation" : 1
				}

			}
, 			{
				"box" : 				{
					"maxclass" : "bpatcher",
					"varname" : "FG.M4L.ParamStorage.Button[4]",
					"id" : "obj-11",
					"numinlets" : 3,
					"presentation_rect" : [ 64.0, 0.0, 16.0, 16.0 ],
					"args" : [  ],
					"numoutlets" : 0,
					"name" : "ParamStorage.Button.maxpat",
					"patching_rect" : [ 220.0, 152.0, 16.0, 16.0 ],
					"presentation" : 1
				}

			}
, 			{
				"box" : 				{
					"maxclass" : "bpatcher",
					"varname" : "FG.M4L.ParamStorage.Button[3]",
					"id" : "obj-10",
					"numinlets" : 3,
					"presentation_rect" : [ 48.0, 0.0, 16.0, 16.0 ],
					"args" : [  ],
					"numoutlets" : 0,
					"name" : "ParamStorage.Button.maxpat",
					"patching_rect" : [ 180.0, 152.0, 16.0, 16.0 ],
					"presentation" : 1
				}

			}
, 			{
				"box" : 				{
					"maxclass" : "bpatcher",
					"varname" : "FG.M4L.ParamStorage.Button[2]",
					"id" : "obj-9",
					"numinlets" : 3,
					"presentation_rect" : [ 32.0, 0.0, 16.0, 16.0 ],
					"args" : [  ],
					"numoutlets" : 0,
					"name" : "ParamStorage.Button.maxpat",
					"patching_rect" : [ 140.0, 152.0, 16.0, 16.0 ],
					"presentation" : 1
				}

			}
, 			{
				"box" : 				{
					"maxclass" : "bpatcher",
					"varname" : "FG.M4L.ParamStorage.Button[1]",
					"id" : "obj-8",
					"numinlets" : 3,
					"presentation_rect" : [ 16.0, 0.0, 16.0, 16.0 ],
					"args" : [  ],
					"numoutlets" : 0,
					"name" : "ParamStorage.Button.maxpat",
					"patching_rect" : [ 100.0, 152.0, 16.0, 16.0 ],
					"presentation" : 1
				}

			}
, 			{
				"box" : 				{
					"maxclass" : "inlet",
					"id" : "obj-2",
					"numinlets" : 0,
					"numoutlets" : 1,
					"patching_rect" : [ 420.0, 8.0, 25.0, 25.0 ],
					"outlettype" : [ "" ],
					"comment" : "Row Number (use for last row)"
				}

			}
, 			{
				"box" : 				{
					"maxclass" : "newobj",
					"text" : "+ 0",
					"fontname" : "Arial Bold",
					"id" : "obj-36",
					"numinlets" : 2,
					"fontsize" : 10.0,
					"numoutlets" : 1,
					"patching_rect" : [ 340.0, 128.0, 32.5, 18.0 ],
					"outlettype" : [ "int" ]
				}

			}
, 			{
				"box" : 				{
					"maxclass" : "newobj",
					"text" : "+ 0",
					"fontname" : "Arial Bold",
					"id" : "obj-35",
					"numinlets" : 2,
					"fontsize" : 10.0,
					"numoutlets" : 1,
					"patching_rect" : [ 300.0, 128.0, 32.5, 18.0 ],
					"outlettype" : [ "int" ]
				}

			}
, 			{
				"box" : 				{
					"maxclass" : "newobj",
					"text" : "+ 0",
					"fontname" : "Arial Bold",
					"id" : "obj-34",
					"numinlets" : 2,
					"fontsize" : 10.0,
					"numoutlets" : 1,
					"patching_rect" : [ 260.0, 128.0, 32.5, 18.0 ],
					"outlettype" : [ "int" ]
				}

			}
, 			{
				"box" : 				{
					"maxclass" : "newobj",
					"text" : "+ 0",
					"fontname" : "Arial Bold",
					"id" : "obj-33",
					"numinlets" : 2,
					"fontsize" : 10.0,
					"numoutlets" : 1,
					"patching_rect" : [ 220.0, 128.0, 32.5, 18.0 ],
					"outlettype" : [ "int" ]
				}

			}
, 			{
				"box" : 				{
					"maxclass" : "newobj",
					"text" : "+ 0",
					"fontname" : "Arial Bold",
					"id" : "obj-32",
					"numinlets" : 2,
					"fontsize" : 10.0,
					"numoutlets" : 1,
					"patching_rect" : [ 180.0, 128.0, 32.5, 18.0 ],
					"outlettype" : [ "int" ]
				}

			}
, 			{
				"box" : 				{
					"maxclass" : "newobj",
					"text" : "+ 0",
					"fontname" : "Arial Bold",
					"id" : "obj-30",
					"numinlets" : 2,
					"fontsize" : 10.0,
					"numoutlets" : 1,
					"patching_rect" : [ 140.0, 128.0, 32.5, 18.0 ],
					"outlettype" : [ "int" ]
				}

			}
, 			{
				"box" : 				{
					"maxclass" : "newobj",
					"text" : "+ 0",
					"fontname" : "Arial Bold",
					"id" : "obj-28",
					"numinlets" : 2,
					"fontsize" : 10.0,
					"numoutlets" : 1,
					"patching_rect" : [ 100.0, 128.0, 32.5, 18.0 ],
					"outlettype" : [ "int" ]
				}

			}
, 			{
				"box" : 				{
					"maxclass" : "newobj",
					"text" : "+ 0",
					"fontname" : "Arial Bold",
					"id" : "obj-7",
					"numinlets" : 2,
					"fontsize" : 10.0,
					"numoutlets" : 1,
					"patching_rect" : [ 8.0, 128.0, 32.5, 18.0 ],
					"outlettype" : [ "int" ]
				}

			}
, 			{
				"box" : 				{
					"maxclass" : "newobj",
					"text" : "* 8",
					"fontname" : "Arial Bold",
					"id" : "obj-4",
					"numinlets" : 2,
					"fontsize" : 10.0,
					"numoutlets" : 1,
					"patching_rect" : [ 396.0, 104.0, 32.5, 18.0 ],
					"outlettype" : [ "int" ]
				}

			}
, 			{
				"box" : 				{
					"maxclass" : "newobj",
					"text" : "- 1",
					"fontname" : "Arial Bold",
					"id" : "obj-3",
					"numinlets" : 2,
					"fontsize" : 10.0,
					"numoutlets" : 1,
					"patching_rect" : [ 396.0, 80.0, 32.5, 18.0 ],
					"outlettype" : [ "int" ]
				}

			}
, 			{
				"box" : 				{
					"maxclass" : "inlet",
					"id" : "obj-1",
					"numinlets" : 0,
					"numoutlets" : 1,
					"patching_rect" : [ 380.0, 8.0, 25.0, 25.0 ],
					"outlettype" : [ "" ],
					"comment" : "Row number"
				}

			}
, 			{
				"box" : 				{
					"maxclass" : "bpatcher",
					"varname" : "FG.M4L.ParamStorage.Button[13]",
					"id" : "obj-191",
					"numinlets" : 3,
					"presentation_rect" : [ 0.0, 0.0, 16.0, 16.0 ],
					"args" : [  ],
					"numoutlets" : 0,
					"name" : "ParamStorage.Button.maxpat",
					"patching_rect" : [ 12.0, 152.0, 16.0, 16.0 ],
					"presentation" : 1
				}

			}
, 			{
				"box" : 				{
					"maxclass" : "message",
					"text" : "8",
					"fontname" : "Arial Bold",
					"id" : "obj-19",
					"numinlets" : 2,
					"fontsize" : 10.0,
					"numoutlets" : 1,
					"patching_rect" : [ 340.0, 104.0, 32.5, 16.0 ],
					"outlettype" : [ "" ]
				}

			}
, 			{
				"box" : 				{
					"maxclass" : "message",
					"text" : "7",
					"fontname" : "Arial Bold",
					"id" : "obj-25",
					"numinlets" : 2,
					"fontsize" : 10.0,
					"numoutlets" : 1,
					"patching_rect" : [ 300.0, 104.0, 32.5, 16.0 ],
					"outlettype" : [ "" ]
				}

			}
, 			{
				"box" : 				{
					"maxclass" : "message",
					"text" : "6",
					"fontname" : "Arial Bold",
					"id" : "obj-27",
					"numinlets" : 2,
					"fontsize" : 10.0,
					"numoutlets" : 1,
					"patching_rect" : [ 260.0, 104.0, 32.5, 16.0 ],
					"outlettype" : [ "" ]
				}

			}
, 			{
				"box" : 				{
					"maxclass" : "message",
					"text" : "5",
					"fontname" : "Arial Bold",
					"id" : "obj-29",
					"numinlets" : 2,
					"fontsize" : 10.0,
					"numoutlets" : 1,
					"patching_rect" : [ 220.0, 104.0, 32.5, 16.0 ],
					"outlettype" : [ "" ]
				}

			}
, 			{
				"box" : 				{
					"maxclass" : "message",
					"text" : "4",
					"fontname" : "Arial Bold",
					"id" : "obj-6",
					"numinlets" : 2,
					"fontsize" : 10.0,
					"numoutlets" : 1,
					"patching_rect" : [ 180.0, 104.0, 32.5, 16.0 ],
					"outlettype" : [ "" ]
				}

			}
, 			{
				"box" : 				{
					"maxclass" : "message",
					"text" : "3",
					"fontname" : "Arial Bold",
					"id" : "obj-12",
					"numinlets" : 2,
					"fontsize" : 10.0,
					"numoutlets" : 1,
					"patching_rect" : [ 140.0, 104.0, 32.5, 16.0 ],
					"outlettype" : [ "" ]
				}

			}
, 			{
				"box" : 				{
					"maxclass" : "message",
					"text" : "2",
					"fontname" : "Arial Bold",
					"id" : "obj-5",
					"numinlets" : 2,
					"fontsize" : 10.0,
					"numoutlets" : 1,
					"patching_rect" : [ 100.0, 104.0, 32.5, 16.0 ],
					"outlettype" : [ "" ]
				}

			}
, 			{
				"box" : 				{
					"maxclass" : "message",
					"text" : "1",
					"fontname" : "Arial Bold",
					"id" : "obj-102",
					"numinlets" : 2,
					"fontsize" : 10.0,
					"numoutlets" : 1,
					"patching_rect" : [ 8.0, 104.0, 32.5, 16.0 ],
					"outlettype" : [ "" ]
				}

			}
 ],
		"lines" : [ 			{
				"patchline" : 				{
					"source" : [ "obj-7", 0 ],
					"destination" : [ "obj-191", 0 ],
					"hidden" : 0,
					"midpoints" : [  ]
				}

			}
, 			{
				"patchline" : 				{
					"source" : [ "obj-28", 0 ],
					"destination" : [ "obj-8", 0 ],
					"hidden" : 0,
					"midpoints" : [  ]
				}

			}
, 			{
				"patchline" : 				{
					"source" : [ "obj-30", 0 ],
					"destination" : [ "obj-9", 0 ],
					"hidden" : 0,
					"midpoints" : [  ]
				}

			}
, 			{
				"patchline" : 				{
					"source" : [ "obj-32", 0 ],
					"destination" : [ "obj-10", 0 ],
					"hidden" : 0,
					"midpoints" : [  ]
				}

			}
, 			{
				"patchline" : 				{
					"source" : [ "obj-33", 0 ],
					"destination" : [ "obj-11", 0 ],
					"hidden" : 0,
					"midpoints" : [  ]
				}

			}
, 			{
				"patchline" : 				{
					"source" : [ "obj-34", 0 ],
					"destination" : [ "obj-13", 0 ],
					"hidden" : 0,
					"midpoints" : [  ]
				}

			}
, 			{
				"patchline" : 				{
					"source" : [ "obj-35", 0 ],
					"destination" : [ "obj-14", 0 ],
					"hidden" : 0,
					"midpoints" : [  ]
				}

			}
, 			{
				"patchline" : 				{
					"source" : [ "obj-36", 0 ],
					"destination" : [ "obj-15", 0 ],
					"hidden" : 0,
					"midpoints" : [  ]
				}

			}
, 			{
				"patchline" : 				{
					"source" : [ "obj-17", 0 ],
					"destination" : [ "obj-15", 1 ],
					"hidden" : 0,
					"midpoints" : [ 429.5, 148.5, 348.0, 148.5 ]
				}

			}
, 			{
				"patchline" : 				{
					"source" : [ "obj-3", 0 ],
					"destination" : [ "obj-4", 0 ],
					"hidden" : 0,
					"midpoints" : [  ]
				}

			}
, 			{
				"patchline" : 				{
					"source" : [ "obj-4", 0 ],
					"destination" : [ "obj-7", 1 ],
					"hidden" : 0,
					"midpoints" : [ 405.5, 124.5, 31.0, 124.5 ]
				}

			}
, 			{
				"patchline" : 				{
					"source" : [ "obj-4", 0 ],
					"destination" : [ "obj-28", 1 ],
					"hidden" : 0,
					"midpoints" : [ 405.5, 124.5, 123.0, 124.5 ]
				}

			}
, 			{
				"patchline" : 				{
					"source" : [ "obj-4", 0 ],
					"destination" : [ "obj-30", 1 ],
					"hidden" : 0,
					"midpoints" : [ 405.5, 124.5, 163.0, 124.5 ]
				}

			}
, 			{
				"patchline" : 				{
					"source" : [ "obj-4", 0 ],
					"destination" : [ "obj-32", 1 ],
					"hidden" : 0,
					"midpoints" : [ 405.5, 124.5, 203.0, 124.5 ]
				}

			}
, 			{
				"patchline" : 				{
					"source" : [ "obj-4", 0 ],
					"destination" : [ "obj-33", 1 ],
					"hidden" : 0,
					"midpoints" : [ 405.5, 124.5, 243.0, 124.5 ]
				}

			}
, 			{
				"patchline" : 				{
					"source" : [ "obj-4", 0 ],
					"destination" : [ "obj-34", 1 ],
					"hidden" : 0,
					"midpoints" : [ 405.5, 124.5, 283.0, 124.5 ]
				}

			}
, 			{
				"patchline" : 				{
					"source" : [ "obj-4", 0 ],
					"destination" : [ "obj-35", 1 ],
					"hidden" : 0,
					"midpoints" : [ 405.5, 124.5, 323.0, 124.5 ]
				}

			}
, 			{
				"patchline" : 				{
					"source" : [ "obj-4", 0 ],
					"destination" : [ "obj-36", 1 ],
					"hidden" : 0,
					"midpoints" : [ 405.5, 124.5, 363.0, 124.5 ]
				}

			}
, 			{
				"patchline" : 				{
					"source" : [ "obj-19", 0 ],
					"destination" : [ "obj-36", 0 ],
					"hidden" : 0,
					"midpoints" : [  ]
				}

			}
, 			{
				"patchline" : 				{
					"source" : [ "obj-25", 0 ],
					"destination" : [ "obj-35", 0 ],
					"hidden" : 0,
					"midpoints" : [  ]
				}

			}
, 			{
				"patchline" : 				{
					"source" : [ "obj-27", 0 ],
					"destination" : [ "obj-34", 0 ],
					"hidden" : 0,
					"midpoints" : [  ]
				}

			}
, 			{
				"patchline" : 				{
					"source" : [ "obj-29", 0 ],
					"destination" : [ "obj-33", 0 ],
					"hidden" : 0,
					"midpoints" : [  ]
				}

			}
, 			{
				"patchline" : 				{
					"source" : [ "obj-6", 0 ],
					"destination" : [ "obj-32", 0 ],
					"hidden" : 0,
					"midpoints" : [  ]
				}

			}
, 			{
				"patchline" : 				{
					"source" : [ "obj-12", 0 ],
					"destination" : [ "obj-30", 0 ],
					"hidden" : 0,
					"midpoints" : [  ]
				}

			}
, 			{
				"patchline" : 				{
					"source" : [ "obj-5", 0 ],
					"destination" : [ "obj-28", 0 ],
					"hidden" : 0,
					"midpoints" : [  ]
				}

			}
, 			{
				"patchline" : 				{
					"source" : [ "obj-102", 0 ],
					"destination" : [ "obj-7", 0 ],
					"hidden" : 0,
					"midpoints" : [  ]
				}

			}
, 			{
				"patchline" : 				{
					"source" : [ "obj-16", 1 ],
					"destination" : [ "obj-3", 0 ],
					"hidden" : 0,
					"midpoints" : [  ]
				}

			}
, 			{
				"patchline" : 				{
					"source" : [ "obj-1", 0 ],
					"destination" : [ "obj-16", 0 ],
					"hidden" : 0,
					"midpoints" : [  ]
				}

			}
, 			{
				"patchline" : 				{
					"source" : [ "obj-16", 0 ],
					"destination" : [ "obj-102", 0 ],
					"hidden" : 0,
					"midpoints" : [ 389.5, 88.0, 17.5, 88.0 ]
				}

			}
, 			{
				"patchline" : 				{
					"source" : [ "obj-16", 0 ],
					"destination" : [ "obj-5", 0 ],
					"hidden" : 0,
					"midpoints" : [ 389.5, 88.0, 109.5, 88.0 ]
				}

			}
, 			{
				"patchline" : 				{
					"source" : [ "obj-16", 0 ],
					"destination" : [ "obj-12", 0 ],
					"hidden" : 0,
					"midpoints" : [ 389.5, 88.0, 149.5, 88.0 ]
				}

			}
, 			{
				"patchline" : 				{
					"source" : [ "obj-16", 0 ],
					"destination" : [ "obj-6", 0 ],
					"hidden" : 0,
					"midpoints" : [ 389.5, 88.0, 189.5, 88.0 ]
				}

			}
, 			{
				"patchline" : 				{
					"source" : [ "obj-16", 0 ],
					"destination" : [ "obj-29", 0 ],
					"hidden" : 0,
					"midpoints" : [ 389.5, 88.0, 229.5, 88.0 ]
				}

			}
, 			{
				"patchline" : 				{
					"source" : [ "obj-16", 0 ],
					"destination" : [ "obj-27", 0 ],
					"hidden" : 0,
					"midpoints" : [ 389.5, 88.0, 269.5, 88.0 ]
				}

			}
, 			{
				"patchline" : 				{
					"source" : [ "obj-16", 0 ],
					"destination" : [ "obj-25", 0 ],
					"hidden" : 0,
					"midpoints" : [ 389.5, 88.0, 309.5, 88.0 ]
				}

			}
, 			{
				"patchline" : 				{
					"source" : [ "obj-16", 0 ],
					"destination" : [ "obj-19", 0 ],
					"hidden" : 0,
					"midpoints" : [ 389.5, 88.0, 349.5, 88.0 ]
				}

			}
, 			{
				"patchline" : 				{
					"source" : [ "obj-2", 0 ],
					"destination" : [ "obj-17", 0 ],
					"hidden" : 0,
					"midpoints" : [  ]
				}

			}
, 			{
				"patchline" : 				{
					"source" : [ "obj-17", 1 ],
					"destination" : [ "obj-16", 0 ],
					"hidden" : 0,
					"midpoints" : [ 443.0, 56.5, 389.5, 56.5 ]
				}

			}
 ],
		"parameters" : 		{
			"obj-8::obj-168" : [ "live.toggle[1]", "live.toggle[1]", 0 ],
			"obj-11::obj-56" : [ "bound-rownum[3]", "bound-rownum", 0 ],
			"obj-9::obj-56" : [ "bound-rownum[5]", "bound-rownum", 0 ],
			"obj-14::obj-168" : [ "live.toggle[6]", "live.toggle[1]", 0 ],
			"obj-13::obj-91::obj-7" : [ "saved-ctrlvals[2]", "Saved Control Values", 20 ],
			"obj-10::obj-168" : [ "live.toggle[3]", "live.toggle[1]", 0 ],
			"obj-15::obj-91::obj-7" : [ "saved-ctrlvals", "Saved Control Values", 20 ],
			"obj-11::obj-168" : [ "live.toggle[4]", "live.toggle[1]", 0 ],
			"obj-9::obj-168" : [ "live.toggle[2]", "live.toggle[1]", 0 ],
			"obj-14::obj-56" : [ "bound-rownum[1]", "bound-rownum", 0 ],
			"obj-14::obj-91::obj-7" : [ "saved-ctrlvals[1]", "Saved Control Values", 20 ],
			"obj-191::obj-56" : [ "bound-rownum[7]", "bound-rownum", 0 ],
			"obj-9::obj-91::obj-7" : [ "saved-ctrlvals[5]", "Saved Control Values", 20 ],
			"obj-191::obj-168" : [ "live.toggle[16]", "live.toggle[1]", 0 ],
			"obj-15::obj-168" : [ "live.toggle[17]", "live.toggle[1]", 0 ],
			"obj-8::obj-56" : [ "bound-rownum[6]", "bound-rownum", 0 ],
			"obj-15::obj-56" : [ "bound-rownum", "bound-rownum", 0 ],
			"obj-13::obj-56" : [ "bound-rownum[2]", "bound-rownum", 0 ],
			"obj-11::obj-91::obj-7" : [ "saved-ctrlvals[3]", "Saved Control Values", 20 ],
			"obj-10::obj-56" : [ "bound-rownum[4]", "bound-rownum", 0 ],
			"obj-8::obj-91::obj-7" : [ "saved-ctrlvals[6]", "Saved Control Values", 20 ],
			"obj-13::obj-168" : [ "live.toggle[5]", "live.toggle[1]", 0 ],
			"obj-191::obj-91::obj-7" : [ "saved-ctrlvals[7]", "Saved Control Values", 20 ],
			"obj-10::obj-91::obj-7" : [ "saved-ctrlvals[4]", "Saved Control Values", 20 ]
		}

	}

}
