{
	"patcher" : 	{
		"fileversion" : 1,
		"rect" : [ 3.0, 76.0, 1594.0, 912.0 ],
		"bglocked" : 0,
		"defrect" : [ 3.0, 76.0, 1594.0, 912.0 ],
		"openrect" : [ 0.0, 0.0, 0.0, 0.0 ],
		"openinpresentation" : 0,
		"default_fontsize" : 10.0,
		"default_fontface" : 0,
		"default_fontname" : "Arial Bold",
		"gridonopen" : 0,
		"gridsize" : [ 4.0, 4.0 ],
		"gridsnaponopen" : 0,
		"toolbarvisible" : 1,
		"boxanimatetime" : 200,
		"imprint" : 0,
		"enablehscroll" : 1,
		"enablevscroll" : 1,
		"devicewidth" : 0.0,
		"globalpatchername" : "storage",
		"boxes" : [ 			{
				"box" : 				{
					"maxclass" : "newobj",
					"varname" : "ParamStorage.SingleStorage&Observer[7]",
					"text" : "ParamStorage.SingleStorage&Observer 0",
					"fontname" : "Arial Bold",
					"id" : "obj-41",
					"numinlets" : 4,
					"fontsize" : 10.0,
					"numoutlets" : 1,
					"patching_rect" : [ 176.0, 720.0, 208.0, 18.0 ],
					"outlettype" : [ "" ],
					"color" : [ 0.545098, 0.85098, 0.592157, 1.0 ]
				}

			}
, 			{
				"box" : 				{
					"maxclass" : "newobj",
					"varname" : "ParamStorage.SingleStorage&Observer[6]",
					"text" : "ParamStorage.SingleStorage&Observer 1",
					"fontname" : "Arial Bold",
					"id" : "obj-39",
					"numinlets" : 4,
					"fontsize" : 10.0,
					"numoutlets" : 1,
					"patching_rect" : [ 196.0, 744.0, 208.0, 18.0 ],
					"outlettype" : [ "" ],
					"color" : [ 0.545098, 0.85098, 0.592157, 1.0 ]
				}

			}
, 			{
				"box" : 				{
					"maxclass" : "newobj",
					"varname" : "ParamStorage.SingleStorage&Observer[5]",
					"text" : "ParamStorage.SingleStorage&Observer 2",
					"fontname" : "Arial Bold",
					"id" : "obj-38",
					"numinlets" : 4,
					"fontsize" : 10.0,
					"numoutlets" : 1,
					"patching_rect" : [ 220.0, 768.0, 208.0, 18.0 ],
					"outlettype" : [ "" ],
					"color" : [ 0.545098, 0.85098, 0.592157, 1.0 ]
				}

			}
, 			{
				"box" : 				{
					"maxclass" : "newobj",
					"varname" : "ParamStorage.SingleStorage&Observer[4]",
					"text" : "ParamStorage.SingleStorage&Observer 3",
					"fontname" : "Arial Bold",
					"id" : "obj-37",
					"numinlets" : 4,
					"fontsize" : 10.0,
					"numoutlets" : 1,
					"patching_rect" : [ 232.0, 792.0, 208.0, 18.0 ],
					"outlettype" : [ "" ],
					"color" : [ 0.545098, 0.85098, 0.592157, 1.0 ]
				}

			}
, 			{
				"box" : 				{
					"maxclass" : "newobj",
					"varname" : "ParamStorage.SingleStorage&Observer[3]",
					"text" : "ParamStorage.SingleStorage&Observer 4",
					"fontname" : "Arial Bold",
					"id" : "obj-20",
					"numinlets" : 4,
					"fontsize" : 10.0,
					"numoutlets" : 1,
					"patching_rect" : [ 252.0, 816.0, 208.0, 18.0 ],
					"outlettype" : [ "" ],
					"color" : [ 0.545098, 0.85098, 0.592157, 1.0 ]
				}

			}
, 			{
				"box" : 				{
					"maxclass" : "newobj",
					"varname" : "ParamStorage.SingleStorage&Observer[2]",
					"text" : "ParamStorage.SingleStorage&Observer 5",
					"fontname" : "Arial Bold",
					"id" : "obj-12",
					"numinlets" : 4,
					"fontsize" : 10.0,
					"numoutlets" : 1,
					"patching_rect" : [ 276.0, 840.0, 208.0, 18.0 ],
					"outlettype" : [ "" ],
					"color" : [ 0.545098, 0.85098, 0.592157, 1.0 ]
				}

			}
, 			{
				"box" : 				{
					"maxclass" : "newobj",
					"varname" : "ParamStorage.SingleStorage&Observer[1]",
					"text" : "ParamStorage.SingleStorage&Observer 6",
					"fontname" : "Arial Bold",
					"id" : "obj-3",
					"numinlets" : 4,
					"fontsize" : 10.0,
					"numoutlets" : 1,
					"patching_rect" : [ 296.0, 864.0, 208.0, 18.0 ],
					"outlettype" : [ "" ],
					"color" : [ 0.545098, 0.85098, 0.592157, 1.0 ]
				}

			}
, 			{
				"box" : 				{
					"maxclass" : "newobj",
					"varname" : "ParamStorage.SingleStorage&Observer",
					"text" : "ParamStorage.SingleStorage&Observer 7",
					"fontname" : "Arial Bold",
					"id" : "obj-174",
					"numinlets" : 4,
					"fontsize" : 10.0,
					"numoutlets" : 1,
					"patching_rect" : [ 316.0, 888.0, 208.0, 18.0 ],
					"outlettype" : [ "" ],
					"color" : [ 0.545098, 0.85098, 0.592157, 1.0 ]
				}

			}
, 			{
				"box" : 				{
					"maxclass" : "inlet",
					"id" : "obj-36",
					"numinlets" : 0,
					"numoutlets" : 1,
					"patching_rect" : [ 508.0, 4.0, 25.0, 25.0 ],
					"outlettype" : [ "" ],
					"comment" : "Device parameter ids"
				}

			}
, 			{
				"box" : 				{
					"maxclass" : "inlet",
					"id" : "obj-35",
					"numinlets" : 0,
					"numoutlets" : 1,
					"patching_rect" : [ 464.0, 4.0, 25.0, 25.0 ],
					"outlettype" : [ "" ],
					"comment" : "Device parameter count"
				}

			}
, 			{
				"box" : 				{
					"maxclass" : "newobj",
					"text" : "gate 8",
					"fontname" : "Arial Bold",
					"id" : "obj-34",
					"numinlets" : 2,
					"fontsize" : 10.0,
					"numoutlets" : 8,
					"patching_rect" : [ 4.0, 560.0, 130.5, 18.0 ],
					"outlettype" : [ "", "", "", "", "", "", "", "" ]
				}

			}
, 			{
				"box" : 				{
					"maxclass" : "newobj",
					"text" : "gate 8",
					"fontname" : "Arial Bold",
					"id" : "obj-33",
					"numinlets" : 2,
					"fontsize" : 10.0,
					"numoutlets" : 8,
					"patching_rect" : [ 160.0, 524.0, 130.5, 18.0 ],
					"outlettype" : [ "", "", "", "", "", "", "", "" ]
				}

			}
, 			{
				"box" : 				{
					"maxclass" : "inlet",
					"id" : "obj-32",
					"numinlets" : 0,
					"numoutlets" : 1,
					"patching_rect" : [ 436.0, 4.0, 25.0, 25.0 ],
					"outlettype" : [ "" ],
					"comment" : "Device name"
				}

			}
, 			{
				"box" : 				{
					"maxclass" : "newobj",
					"text" : "gate 8",
					"fontname" : "Arial Bold",
					"id" : "obj-31",
					"numinlets" : 2,
					"fontsize" : 10.0,
					"numoutlets" : 8,
					"patching_rect" : [ 324.0, 488.0, 130.5, 18.0 ],
					"outlettype" : [ "", "", "", "", "", "", "", "" ]
				}

			}
, 			{
				"box" : 				{
					"maxclass" : "inlet",
					"id" : "obj-30",
					"numinlets" : 0,
					"numoutlets" : 1,
					"patching_rect" : [ 1508.0, 4.0, 25.0, 25.0 ],
					"outlettype" : [ "" ],
					"comment" : "Device path"
				}

			}
, 			{
				"box" : 				{
					"maxclass" : "newobj",
					"text" : "+ 1",
					"fontname" : "Arial Bold",
					"id" : "obj-29",
					"numinlets" : 2,
					"fontsize" : 10.0,
					"numoutlets" : 1,
					"patching_rect" : [ 4.0, 36.0, 32.5, 18.0 ],
					"outlettype" : [ "int" ]
				}

			}
, 			{
				"box" : 				{
					"maxclass" : "newobj",
					"text" : "gate 8",
					"fontname" : "Arial Bold",
					"id" : "obj-28",
					"numinlets" : 2,
					"fontsize" : 10.0,
					"numoutlets" : 8,
					"patching_rect" : [ 1388.0, 72.0, 136.0, 18.0 ],
					"outlettype" : [ "", "", "", "", "", "", "", "" ]
				}

			}
, 			{
				"box" : 				{
					"maxclass" : "inlet",
					"id" : "obj-27",
					"numinlets" : 0,
					"numoutlets" : 1,
					"patching_rect" : [ 4.0, 4.0, 25.0, 25.0 ],
					"outlettype" : [ "" ],
					"comment" : "Cellblock row number"
				}

			}
, 			{
				"box" : 				{
					"maxclass" : "newobj",
					"text" : "pattrmarker storage",
					"fontname" : "Arial Bold",
					"id" : "obj-1",
					"numinlets" : 1,
					"fontsize" : 10.0,
					"numoutlets" : 1,
					"patching_rect" : [ 808.0, 0.0, 105.0, 18.0 ],
					"outlettype" : [ "" ]
				}

			}
 ],
		"lines" : [ 			{
				"patchline" : 				{
					"source" : [ "obj-28", 0 ],
					"destination" : [ "obj-41", 3 ],
					"hidden" : 0,
					"midpoints" : [ 1397.5, 711.5, 374.5, 711.5 ]
				}

			}
, 			{
				"patchline" : 				{
					"source" : [ "obj-28", 1 ],
					"destination" : [ "obj-39", 3 ],
					"hidden" : 0,
					"midpoints" : [ 1414.214233, 737.5, 394.5, 737.5 ]
				}

			}
, 			{
				"patchline" : 				{
					"source" : [ "obj-28", 2 ],
					"destination" : [ "obj-38", 3 ],
					"hidden" : 0,
					"midpoints" : [ 1430.928589, 762.5, 418.5, 762.5 ]
				}

			}
, 			{
				"patchline" : 				{
					"source" : [ "obj-28", 3 ],
					"destination" : [ "obj-37", 3 ],
					"hidden" : 0,
					"midpoints" : [ 1447.642822, 785.5, 430.5, 785.5 ]
				}

			}
, 			{
				"patchline" : 				{
					"source" : [ "obj-28", 4 ],
					"destination" : [ "obj-20", 3 ],
					"hidden" : 0,
					"midpoints" : [ 1464.357178, 810.5, 450.5, 810.5 ]
				}

			}
, 			{
				"patchline" : 				{
					"source" : [ "obj-28", 5 ],
					"destination" : [ "obj-12", 3 ],
					"hidden" : 0,
					"midpoints" : [ 1481.071411, 835.5, 474.5, 835.5 ]
				}

			}
, 			{
				"patchline" : 				{
					"source" : [ "obj-28", 6 ],
					"destination" : [ "obj-3", 3 ],
					"hidden" : 0,
					"midpoints" : [ 1497.785767, 859.5, 494.5, 859.5 ]
				}

			}
, 			{
				"patchline" : 				{
					"source" : [ "obj-33", 0 ],
					"destination" : [ "obj-41", 1 ],
					"hidden" : 0,
					"midpoints" : [  ]
				}

			}
, 			{
				"patchline" : 				{
					"source" : [ "obj-33", 1 ],
					"destination" : [ "obj-39", 1 ],
					"hidden" : 0,
					"midpoints" : [  ]
				}

			}
, 			{
				"patchline" : 				{
					"source" : [ "obj-33", 2 ],
					"destination" : [ "obj-38", 1 ],
					"hidden" : 0,
					"midpoints" : [  ]
				}

			}
, 			{
				"patchline" : 				{
					"source" : [ "obj-31", 0 ],
					"destination" : [ "obj-41", 2 ],
					"hidden" : 0,
					"midpoints" : [  ]
				}

			}
, 			{
				"patchline" : 				{
					"source" : [ "obj-31", 1 ],
					"destination" : [ "obj-39", 2 ],
					"hidden" : 0,
					"midpoints" : [  ]
				}

			}
, 			{
				"patchline" : 				{
					"source" : [ "obj-31", 2 ],
					"destination" : [ "obj-38", 2 ],
					"hidden" : 0,
					"midpoints" : [  ]
				}

			}
, 			{
				"patchline" : 				{
					"source" : [ "obj-34", 0 ],
					"destination" : [ "obj-41", 0 ],
					"hidden" : 0,
					"midpoints" : [ 13.5, 705.0, 185.5, 705.0 ]
				}

			}
, 			{
				"patchline" : 				{
					"source" : [ "obj-34", 1 ],
					"destination" : [ "obj-39", 0 ],
					"hidden" : 0,
					"midpoints" : [ 29.428572, 741.0, 205.5, 741.0 ]
				}

			}
, 			{
				"patchline" : 				{
					"source" : [ "obj-34", 2 ],
					"destination" : [ "obj-38", 0 ],
					"hidden" : 0,
					"midpoints" : [ 45.357143, 765.0, 229.5, 765.0 ]
				}

			}
, 			{
				"patchline" : 				{
					"source" : [ "obj-31", 3 ],
					"destination" : [ "obj-37", 2 ],
					"hidden" : 0,
					"midpoints" : [  ]
				}

			}
, 			{
				"patchline" : 				{
					"source" : [ "obj-33", 3 ],
					"destination" : [ "obj-37", 1 ],
					"hidden" : 0,
					"midpoints" : [  ]
				}

			}
, 			{
				"patchline" : 				{
					"source" : [ "obj-34", 3 ],
					"destination" : [ "obj-37", 0 ],
					"hidden" : 0,
					"midpoints" : [ 61.285713, 789.0, 241.5, 789.0 ]
				}

			}
, 			{
				"patchline" : 				{
					"source" : [ "obj-31", 4 ],
					"destination" : [ "obj-20", 2 ],
					"hidden" : 0,
					"midpoints" : [  ]
				}

			}
, 			{
				"patchline" : 				{
					"source" : [ "obj-33", 4 ],
					"destination" : [ "obj-20", 1 ],
					"hidden" : 0,
					"midpoints" : [  ]
				}

			}
, 			{
				"patchline" : 				{
					"source" : [ "obj-34", 4 ],
					"destination" : [ "obj-20", 0 ],
					"hidden" : 0,
					"midpoints" : [ 77.214287, 813.0, 261.5, 813.0 ]
				}

			}
, 			{
				"patchline" : 				{
					"source" : [ "obj-34", 5 ],
					"destination" : [ "obj-12", 0 ],
					"hidden" : 0,
					"midpoints" : [ 93.14286, 837.0, 285.5, 837.0 ]
				}

			}
, 			{
				"patchline" : 				{
					"source" : [ "obj-33", 5 ],
					"destination" : [ "obj-12", 1 ],
					"hidden" : 0,
					"midpoints" : [  ]
				}

			}
, 			{
				"patchline" : 				{
					"source" : [ "obj-34", 6 ],
					"destination" : [ "obj-3", 0 ],
					"hidden" : 0,
					"midpoints" : [ 109.071426, 861.0, 305.5, 861.0 ]
				}

			}
, 			{
				"patchline" : 				{
					"source" : [ "obj-33", 6 ],
					"destination" : [ "obj-3", 1 ],
					"hidden" : 0,
					"midpoints" : [  ]
				}

			}
, 			{
				"patchline" : 				{
					"source" : [ "obj-31", 5 ],
					"destination" : [ "obj-12", 2 ],
					"hidden" : 0,
					"midpoints" : [  ]
				}

			}
, 			{
				"patchline" : 				{
					"source" : [ "obj-31", 6 ],
					"destination" : [ "obj-3", 2 ],
					"hidden" : 0,
					"midpoints" : [  ]
				}

			}
, 			{
				"patchline" : 				{
					"source" : [ "obj-34", 7 ],
					"destination" : [ "obj-174", 0 ],
					"hidden" : 0,
					"midpoints" : [ 125.0, 885.0, 325.5, 885.0 ]
				}

			}
, 			{
				"patchline" : 				{
					"source" : [ "obj-31", 7 ],
					"destination" : [ "obj-174", 2 ],
					"hidden" : 0,
					"midpoints" : [  ]
				}

			}
, 			{
				"patchline" : 				{
					"source" : [ "obj-28", 7 ],
					"destination" : [ "obj-174", 3 ],
					"hidden" : 0,
					"midpoints" : [ 1514.5, 884.5, 514.5, 884.5 ]
				}

			}
, 			{
				"patchline" : 				{
					"source" : [ "obj-33", 7 ],
					"destination" : [ "obj-174", 1 ],
					"hidden" : 0,
					"midpoints" : [  ]
				}

			}
, 			{
				"patchline" : 				{
					"source" : [ "obj-30", 0 ],
					"destination" : [ "obj-28", 1 ],
					"hidden" : 0,
					"midpoints" : [  ]
				}

			}
, 			{
				"patchline" : 				{
					"source" : [ "obj-27", 0 ],
					"destination" : [ "obj-29", 0 ],
					"hidden" : 0,
					"midpoints" : [  ]
				}

			}
, 			{
				"patchline" : 				{
					"source" : [ "obj-29", 0 ],
					"destination" : [ "obj-28", 0 ],
					"hidden" : 0,
					"midpoints" : [ 13.5, 56.5, 1397.5, 56.5 ]
				}

			}
, 			{
				"patchline" : 				{
					"source" : [ "obj-29", 0 ],
					"destination" : [ "obj-31", 0 ],
					"hidden" : 0,
					"midpoints" : [ 13.5, 188.5, 333.5, 188.5 ]
				}

			}
, 			{
				"patchline" : 				{
					"source" : [ "obj-32", 0 ],
					"destination" : [ "obj-31", 1 ],
					"hidden" : 0,
					"midpoints" : [  ]
				}

			}
, 			{
				"patchline" : 				{
					"source" : [ "obj-29", 0 ],
					"destination" : [ "obj-33", 0 ],
					"hidden" : 0,
					"midpoints" : [ 13.5, 288.5, 169.5, 288.5 ]
				}

			}
, 			{
				"patchline" : 				{
					"source" : [ "obj-29", 0 ],
					"destination" : [ "obj-34", 0 ],
					"hidden" : 0,
					"midpoints" : [ 13.5, 56.5, 13.5, 56.5 ]
				}

			}
, 			{
				"patchline" : 				{
					"source" : [ "obj-35", 0 ],
					"destination" : [ "obj-33", 1 ],
					"hidden" : 0,
					"midpoints" : [ 473.5, 519.0, 281.0, 519.0 ]
				}

			}
, 			{
				"patchline" : 				{
					"source" : [ "obj-36", 0 ],
					"destination" : [ "obj-34", 1 ],
					"hidden" : 0,
					"midpoints" : [ 517.5, 551.0, 125.0, 551.0 ]
				}

			}
 ],
		"parameters" : 		{

		}

	}

}
