{
	"patcher" : 	{
		"fileversion" : 1,
		"rect" : [ 4.0, 76.0, 1594.0, 912.0 ],
		"bglocked" : 0,
		"defrect" : [ 4.0, 76.0, 1594.0, 912.0 ],
		"openrect" : [ 0.0, 0.0, 0.0, 0.0 ],
		"openinpresentation" : 0,
		"default_fontsize" : 10.0,
		"default_fontface" : 0,
		"default_fontname" : "Arial Bold",
		"gridonopen" : 0,
		"gridsize" : [ 4.0, 4.0 ],
		"gridsnaponopen" : 0,
		"toolbarvisible" : 1,
		"boxanimatetime" : 200,
		"imprint" : 0,
		"enablehscroll" : 1,
		"enablevscroll" : 1,
		"devicewidth" : 0.0,
		"globalpatchername" : "storage[1]",
		"boxes" : [ 			{
				"box" : 				{
					"maxclass" : "outlet",
					"id" : "obj-2",
					"numinlets" : 1,
					"numoutlets" : 0,
					"patching_rect" : [ 4.0, 508.0, 25.0, 25.0 ],
					"comment" : ""
				}

			}
, 			{
				"box" : 				{
					"maxclass" : "newobj",
					"varname" : "ParamStorage.SingleStorage&Observer[7]",
					"text" : "ParamStorage.SingleStorage&Observer 0",
					"fontname" : "Arial Bold",
					"id" : "obj-41",
					"numinlets" : 4,
					"fontsize" : 10.0,
					"numoutlets" : 1,
					"patching_rect" : [ 4.0, 236.0, 511.0, 18.0 ],
					"outlettype" : [ "int" ],
					"color" : [ 0.545098, 0.85098, 0.592157, 1.0 ]
				}

			}
, 			{
				"box" : 				{
					"maxclass" : "newobj",
					"varname" : "ParamStorage.SingleStorage&Observer[6]",
					"text" : "ParamStorage.SingleStorage&Observer 1",
					"fontname" : "Arial Bold",
					"id" : "obj-39",
					"numinlets" : 4,
					"fontsize" : 10.0,
					"numoutlets" : 1,
					"patching_rect" : [ 24.0, 260.0, 511.0, 18.0 ],
					"outlettype" : [ "int" ],
					"color" : [ 0.545098, 0.85098, 0.592157, 1.0 ]
				}

			}
, 			{
				"box" : 				{
					"maxclass" : "newobj",
					"varname" : "ParamStorage.SingleStorage&Observer[5]",
					"text" : "ParamStorage.SingleStorage&Observer 2",
					"fontname" : "Arial Bold",
					"id" : "obj-38",
					"numinlets" : 4,
					"fontsize" : 10.0,
					"numoutlets" : 1,
					"patching_rect" : [ 44.0, 284.0, 511.0, 18.0 ],
					"outlettype" : [ "int" ],
					"color" : [ 0.545098, 0.85098, 0.592157, 1.0 ]
				}

			}
, 			{
				"box" : 				{
					"maxclass" : "newobj",
					"varname" : "ParamStorage.SingleStorage&Observer[4]",
					"text" : "ParamStorage.SingleStorage&Observer 3",
					"fontname" : "Arial Bold",
					"id" : "obj-37",
					"numinlets" : 4,
					"fontsize" : 10.0,
					"numoutlets" : 1,
					"patching_rect" : [ 64.0, 308.0, 511.0, 18.0 ],
					"outlettype" : [ "int" ],
					"color" : [ 0.545098, 0.85098, 0.592157, 1.0 ]
				}

			}
, 			{
				"box" : 				{
					"maxclass" : "newobj",
					"varname" : "ParamStorage.SingleStorage&Observer[3]",
					"text" : "ParamStorage.SingleStorage&Observer 4",
					"fontname" : "Arial Bold",
					"id" : "obj-20",
					"numinlets" : 4,
					"fontsize" : 10.0,
					"numoutlets" : 1,
					"patching_rect" : [ 84.0, 332.0, 511.0, 18.0 ],
					"outlettype" : [ "int" ],
					"color" : [ 0.545098, 0.85098, 0.592157, 1.0 ]
				}

			}
, 			{
				"box" : 				{
					"maxclass" : "newobj",
					"varname" : "ParamStorage.SingleStorage&Observer[2]",
					"text" : "ParamStorage.SingleStorage&Observer 5",
					"fontname" : "Arial Bold",
					"id" : "obj-12",
					"numinlets" : 4,
					"fontsize" : 10.0,
					"numoutlets" : 1,
					"patching_rect" : [ 104.0, 356.0, 511.0, 18.0 ],
					"outlettype" : [ "int" ],
					"color" : [ 0.545098, 0.85098, 0.592157, 1.0 ]
				}

			}
, 			{
				"box" : 				{
					"maxclass" : "newobj",
					"varname" : "ParamStorage.SingleStorage&Observer[1]",
					"text" : "ParamStorage.SingleStorage&Observer 6",
					"fontname" : "Arial Bold",
					"id" : "obj-3",
					"numinlets" : 4,
					"fontsize" : 10.0,
					"numoutlets" : 1,
					"patching_rect" : [ 124.0, 380.0, 511.0, 18.0 ],
					"outlettype" : [ "int" ],
					"color" : [ 0.545098, 0.85098, 0.592157, 1.0 ]
				}

			}
, 			{
				"box" : 				{
					"maxclass" : "newobj",
					"varname" : "ParamStorage.SingleStorage&Observer",
					"text" : "ParamStorage.SingleStorage&Observer 7",
					"fontname" : "Arial Bold",
					"id" : "obj-174",
					"numinlets" : 4,
					"fontsize" : 10.0,
					"numoutlets" : 1,
					"patching_rect" : [ 144.0, 404.0, 511.0, 18.0 ],
					"outlettype" : [ "int" ],
					"color" : [ 0.545098, 0.85098, 0.592157, 1.0 ]
				}

			}
, 			{
				"box" : 				{
					"maxclass" : "inlet",
					"id" : "obj-36",
					"numinlets" : 0,
					"numoutlets" : 1,
					"patching_rect" : [ 416.0, 4.0, 25.0, 25.0 ],
					"outlettype" : [ "" ],
					"comment" : "Device parameter ids"
				}

			}
, 			{
				"box" : 				{
					"maxclass" : "inlet",
					"id" : "obj-35",
					"numinlets" : 0,
					"numoutlets" : 1,
					"patching_rect" : [ 384.0, 4.0, 25.0, 25.0 ],
					"outlettype" : [ "" ],
					"comment" : "Device parameter count"
				}

			}
, 			{
				"box" : 				{
					"maxclass" : "newobj",
					"text" : "gate 8",
					"fontname" : "Arial Bold",
					"id" : "obj-34",
					"numinlets" : 2,
					"fontsize" : 10.0,
					"numoutlets" : 8,
					"patching_rect" : [ 4.0, 60.0, 158.5, 18.0 ],
					"outlettype" : [ "", "", "", "", "", "", "", "" ]
				}

			}
, 			{
				"box" : 				{
					"maxclass" : "newobj",
					"text" : "gate 8",
					"fontname" : "Arial Bold",
					"id" : "obj-33",
					"numinlets" : 2,
					"fontsize" : 10.0,
					"numoutlets" : 8,
					"patching_rect" : [ 168.0, 60.0, 158.5, 18.0 ],
					"outlettype" : [ "", "", "", "", "", "", "", "" ]
				}

			}
, 			{
				"box" : 				{
					"maxclass" : "inlet",
					"id" : "obj-32",
					"numinlets" : 0,
					"numoutlets" : 1,
					"patching_rect" : [ 348.0, 4.0, 25.0, 25.0 ],
					"outlettype" : [ "" ],
					"comment" : "Device name"
				}

			}
, 			{
				"box" : 				{
					"maxclass" : "newobj",
					"text" : "gate 8",
					"fontname" : "Arial Bold",
					"id" : "obj-31",
					"numinlets" : 2,
					"fontsize" : 10.0,
					"numoutlets" : 8,
					"patching_rect" : [ 332.0, 60.0, 158.5, 18.0 ],
					"outlettype" : [ "", "", "", "", "", "", "", "" ]
				}

			}
, 			{
				"box" : 				{
					"maxclass" : "inlet",
					"id" : "obj-30",
					"numinlets" : 0,
					"numoutlets" : 1,
					"patching_rect" : [ 636.0, 4.0, 25.0, 25.0 ],
					"outlettype" : [ "" ],
					"comment" : "Device path"
				}

			}
, 			{
				"box" : 				{
					"maxclass" : "newobj",
					"text" : "+ 1",
					"fontname" : "Arial Bold",
					"id" : "obj-29",
					"numinlets" : 2,
					"fontsize" : 10.0,
					"numoutlets" : 1,
					"patching_rect" : [ 4.0, 36.0, 32.5, 18.0 ],
					"outlettype" : [ "int" ]
				}

			}
, 			{
				"box" : 				{
					"maxclass" : "newobj",
					"text" : "gate 8",
					"fontname" : "Arial Bold",
					"id" : "obj-28",
					"numinlets" : 2,
					"fontsize" : 10.0,
					"numoutlets" : 8,
					"patching_rect" : [ 496.0, 60.0, 159.0, 18.0 ],
					"outlettype" : [ "", "", "", "", "", "", "", "" ]
				}

			}
, 			{
				"box" : 				{
					"maxclass" : "inlet",
					"id" : "obj-27",
					"numinlets" : 0,
					"numoutlets" : 1,
					"patching_rect" : [ 4.0, 4.0, 25.0, 25.0 ],
					"outlettype" : [ "" ],
					"comment" : "Cellblock row number"
				}

			}
, 			{
				"box" : 				{
					"maxclass" : "newobj",
					"text" : "pattrmarker storage",
					"fontname" : "Arial Bold",
					"id" : "obj-1",
					"numinlets" : 1,
					"fontsize" : 10.0,
					"numoutlets" : 1,
					"patching_rect" : [ 920.0, 168.0, 105.0, 18.0 ],
					"outlettype" : [ "" ]
				}

			}
 ],
		"lines" : [ 			{
				"patchline" : 				{
					"source" : [ "obj-174", 0 ],
					"destination" : [ "obj-2", 0 ],
					"hidden" : 0,
					"midpoints" : [ 153.5, 464.5, 13.5, 464.5 ]
				}

			}
, 			{
				"patchline" : 				{
					"source" : [ "obj-3", 0 ],
					"destination" : [ "obj-2", 0 ],
					"hidden" : 0,
					"midpoints" : [ 133.5, 452.5, 13.5, 452.5 ]
				}

			}
, 			{
				"patchline" : 				{
					"source" : [ "obj-12", 0 ],
					"destination" : [ "obj-2", 0 ],
					"hidden" : 0,
					"midpoints" : [ 113.5, 440.5, 13.5, 440.5 ]
				}

			}
, 			{
				"patchline" : 				{
					"source" : [ "obj-20", 0 ],
					"destination" : [ "obj-2", 0 ],
					"hidden" : 0,
					"midpoints" : [ 93.5, 428.5, 13.5, 428.5 ]
				}

			}
, 			{
				"patchline" : 				{
					"source" : [ "obj-37", 0 ],
					"destination" : [ "obj-2", 0 ],
					"hidden" : 0,
					"midpoints" : [ 73.5, 416.5, 13.5, 416.5 ]
				}

			}
, 			{
				"patchline" : 				{
					"source" : [ "obj-38", 0 ],
					"destination" : [ "obj-2", 0 ],
					"hidden" : 0,
					"midpoints" : [ 53.5, 404.5, 13.5, 404.5 ]
				}

			}
, 			{
				"patchline" : 				{
					"source" : [ "obj-39", 0 ],
					"destination" : [ "obj-2", 0 ],
					"hidden" : 0,
					"midpoints" : [ 33.5, 392.5, 13.5, 392.5 ]
				}

			}
, 			{
				"patchline" : 				{
					"source" : [ "obj-41", 0 ],
					"destination" : [ "obj-2", 0 ],
					"hidden" : 0,
					"midpoints" : [ 13.5, 380.5, 13.5, 380.5 ]
				}

			}
, 			{
				"patchline" : 				{
					"source" : [ "obj-34", 7 ],
					"destination" : [ "obj-174", 0 ],
					"hidden" : 0,
					"midpoints" : [ 153.0, 401.0, 153.5, 401.0 ]
				}

			}
, 			{
				"patchline" : 				{
					"source" : [ "obj-31", 7 ],
					"destination" : [ "obj-174", 2 ],
					"hidden" : 0,
					"midpoints" : [  ]
				}

			}
, 			{
				"patchline" : 				{
					"source" : [ "obj-28", 7 ],
					"destination" : [ "obj-174", 3 ],
					"hidden" : 0,
					"midpoints" : [ 645.5, 238.5, 645.5, 238.5 ]
				}

			}
, 			{
				"patchline" : 				{
					"source" : [ "obj-33", 7 ],
					"destination" : [ "obj-174", 1 ],
					"hidden" : 0,
					"midpoints" : [  ]
				}

			}
, 			{
				"patchline" : 				{
					"source" : [ "obj-28", 6 ],
					"destination" : [ "obj-3", 3 ],
					"hidden" : 0,
					"midpoints" : [ 625.5, 226.5, 625.5, 226.5 ]
				}

			}
, 			{
				"patchline" : 				{
					"source" : [ "obj-34", 6 ],
					"destination" : [ "obj-3", 0 ],
					"hidden" : 0,
					"midpoints" : [ 133.071426, 377.0, 133.5, 377.0 ]
				}

			}
, 			{
				"patchline" : 				{
					"source" : [ "obj-33", 6 ],
					"destination" : [ "obj-3", 1 ],
					"hidden" : 0,
					"midpoints" : [  ]
				}

			}
, 			{
				"patchline" : 				{
					"source" : [ "obj-31", 6 ],
					"destination" : [ "obj-3", 2 ],
					"hidden" : 0,
					"midpoints" : [  ]
				}

			}
, 			{
				"patchline" : 				{
					"source" : [ "obj-28", 5 ],
					"destination" : [ "obj-12", 3 ],
					"hidden" : 0,
					"midpoints" : [ 605.5, 214.5, 605.5, 214.5 ]
				}

			}
, 			{
				"patchline" : 				{
					"source" : [ "obj-34", 5 ],
					"destination" : [ "obj-12", 0 ],
					"hidden" : 0,
					"midpoints" : [ 113.14286, 353.0, 113.5, 353.0 ]
				}

			}
, 			{
				"patchline" : 				{
					"source" : [ "obj-33", 5 ],
					"destination" : [ "obj-12", 1 ],
					"hidden" : 0,
					"midpoints" : [  ]
				}

			}
, 			{
				"patchline" : 				{
					"source" : [ "obj-31", 5 ],
					"destination" : [ "obj-12", 2 ],
					"hidden" : 0,
					"midpoints" : [  ]
				}

			}
, 			{
				"patchline" : 				{
					"source" : [ "obj-28", 4 ],
					"destination" : [ "obj-20", 3 ],
					"hidden" : 0,
					"midpoints" : [ 585.5, 202.5, 585.5, 202.5 ]
				}

			}
, 			{
				"patchline" : 				{
					"source" : [ "obj-31", 4 ],
					"destination" : [ "obj-20", 2 ],
					"hidden" : 0,
					"midpoints" : [  ]
				}

			}
, 			{
				"patchline" : 				{
					"source" : [ "obj-33", 4 ],
					"destination" : [ "obj-20", 1 ],
					"hidden" : 0,
					"midpoints" : [  ]
				}

			}
, 			{
				"patchline" : 				{
					"source" : [ "obj-34", 4 ],
					"destination" : [ "obj-20", 0 ],
					"hidden" : 0,
					"midpoints" : [ 93.214287, 329.0, 93.5, 329.0 ]
				}

			}
, 			{
				"patchline" : 				{
					"source" : [ "obj-28", 3 ],
					"destination" : [ "obj-37", 3 ],
					"hidden" : 0,
					"midpoints" : [ 565.5, 190.5, 565.5, 190.5 ]
				}

			}
, 			{
				"patchline" : 				{
					"source" : [ "obj-31", 3 ],
					"destination" : [ "obj-37", 2 ],
					"hidden" : 0,
					"midpoints" : [  ]
				}

			}
, 			{
				"patchline" : 				{
					"source" : [ "obj-33", 3 ],
					"destination" : [ "obj-37", 1 ],
					"hidden" : 0,
					"midpoints" : [  ]
				}

			}
, 			{
				"patchline" : 				{
					"source" : [ "obj-34", 3 ],
					"destination" : [ "obj-37", 0 ],
					"hidden" : 0,
					"midpoints" : [ 73.285713, 305.0, 73.5, 305.0 ]
				}

			}
, 			{
				"patchline" : 				{
					"source" : [ "obj-28", 2 ],
					"destination" : [ "obj-38", 3 ],
					"hidden" : 0,
					"midpoints" : [ 545.5, 178.5, 545.5, 178.5 ]
				}

			}
, 			{
				"patchline" : 				{
					"source" : [ "obj-33", 2 ],
					"destination" : [ "obj-38", 1 ],
					"hidden" : 0,
					"midpoints" : [  ]
				}

			}
, 			{
				"patchline" : 				{
					"source" : [ "obj-31", 2 ],
					"destination" : [ "obj-38", 2 ],
					"hidden" : 0,
					"midpoints" : [  ]
				}

			}
, 			{
				"patchline" : 				{
					"source" : [ "obj-34", 2 ],
					"destination" : [ "obj-38", 0 ],
					"hidden" : 0,
					"midpoints" : [ 53.357143, 281.0, 53.5, 281.0 ]
				}

			}
, 			{
				"patchline" : 				{
					"source" : [ "obj-28", 1 ],
					"destination" : [ "obj-39", 3 ],
					"hidden" : 0,
					"midpoints" : [ 525.5, 166.5, 525.5, 166.5 ]
				}

			}
, 			{
				"patchline" : 				{
					"source" : [ "obj-33", 1 ],
					"destination" : [ "obj-39", 1 ],
					"hidden" : 0,
					"midpoints" : [  ]
				}

			}
, 			{
				"patchline" : 				{
					"source" : [ "obj-31", 1 ],
					"destination" : [ "obj-39", 2 ],
					"hidden" : 0,
					"midpoints" : [  ]
				}

			}
, 			{
				"patchline" : 				{
					"source" : [ "obj-34", 1 ],
					"destination" : [ "obj-39", 0 ],
					"hidden" : 0,
					"midpoints" : [ 33.42857, 257.0, 33.5, 257.0 ]
				}

			}
, 			{
				"patchline" : 				{
					"source" : [ "obj-28", 0 ],
					"destination" : [ "obj-41", 3 ],
					"hidden" : 0,
					"midpoints" : [ 505.5, 154.5, 505.5, 154.5 ]
				}

			}
, 			{
				"patchline" : 				{
					"source" : [ "obj-33", 0 ],
					"destination" : [ "obj-41", 1 ],
					"hidden" : 0,
					"midpoints" : [  ]
				}

			}
, 			{
				"patchline" : 				{
					"source" : [ "obj-31", 0 ],
					"destination" : [ "obj-41", 2 ],
					"hidden" : 0,
					"midpoints" : [  ]
				}

			}
, 			{
				"patchline" : 				{
					"source" : [ "obj-34", 0 ],
					"destination" : [ "obj-41", 0 ],
					"hidden" : 0,
					"midpoints" : [ 13.5, 221.0, 13.5, 221.0 ]
				}

			}
, 			{
				"patchline" : 				{
					"source" : [ "obj-36", 0 ],
					"destination" : [ "obj-34", 1 ],
					"hidden" : 0,
					"midpoints" : [ 425.5, 44.0, 153.0, 44.0 ]
				}

			}
, 			{
				"patchline" : 				{
					"source" : [ "obj-35", 0 ],
					"destination" : [ "obj-33", 1 ],
					"hidden" : 0,
					"midpoints" : [ 393.5, 44.0, 317.0, 44.0 ]
				}

			}
, 			{
				"patchline" : 				{
					"source" : [ "obj-29", 0 ],
					"destination" : [ "obj-34", 0 ],
					"hidden" : 0,
					"midpoints" : [ 13.5, 56.5, 13.5, 56.5 ]
				}

			}
, 			{
				"patchline" : 				{
					"source" : [ "obj-29", 0 ],
					"destination" : [ "obj-33", 0 ],
					"hidden" : 0,
					"midpoints" : [ 13.5, 56.5, 177.5, 56.5 ]
				}

			}
, 			{
				"patchline" : 				{
					"source" : [ "obj-32", 0 ],
					"destination" : [ "obj-31", 1 ],
					"hidden" : 0,
					"midpoints" : [ 357.5, 50.0, 481.0, 50.0 ]
				}

			}
, 			{
				"patchline" : 				{
					"source" : [ "obj-29", 0 ],
					"destination" : [ "obj-31", 0 ],
					"hidden" : 0,
					"midpoints" : [ 13.5, 56.5, 341.5, 56.5 ]
				}

			}
, 			{
				"patchline" : 				{
					"source" : [ "obj-29", 0 ],
					"destination" : [ "obj-28", 0 ],
					"hidden" : 0,
					"midpoints" : [ 13.5, 56.5, 505.5, 56.5 ]
				}

			}
, 			{
				"patchline" : 				{
					"source" : [ "obj-27", 0 ],
					"destination" : [ "obj-29", 0 ],
					"hidden" : 0,
					"midpoints" : [  ]
				}

			}
, 			{
				"patchline" : 				{
					"source" : [ "obj-30", 0 ],
					"destination" : [ "obj-28", 1 ],
					"hidden" : 0,
					"midpoints" : [  ]
				}

			}
 ],
		"parameters" : 		{
			"obj-39::obj-94" : [ "#1-path[1]", "#1-path", 0 ],
			"obj-20::obj-12" : [ "devparamcount[4]", "devparamcount", 0 ],
			"obj-174::obj-7" : [ "devname[7]", "devname", 0 ],
			"obj-41::obj-7" : [ "devname", "devname", 0 ],
			"obj-39::obj-20" : [ "devparamids[1]", "devparamids", 0 ],
			"obj-3::obj-94" : [ "#1-path[6]", "#1-path", 0 ],
			"obj-3::obj-7" : [ "devname[6]", "devname", 0 ],
			"obj-174::obj-94" : [ "#1-path[7]", "#1-path", 0 ],
			"obj-3::obj-12" : [ "devparamcount[6]", "devparamcount", 0 ],
			"obj-20::obj-7" : [ "devname[4]", "devname", 0 ],
			"obj-12::obj-7" : [ "devname[5]", "devname", 0 ],
			"obj-20::obj-94" : [ "#1-path[4]", "#1-path", 0 ],
			"obj-12::obj-12" : [ "devparamcount[5]", "devparamcount", 0 ],
			"obj-12::obj-94" : [ "#1-path[5]", "#1-path", 0 ],
			"obj-37::obj-12" : [ "devparamcount[3]", "devparamcount", 0 ],
			"obj-38::obj-7" : [ "devname[2]", "devname", 0 ],
			"obj-41::obj-12" : [ "devparamcount", "devparamcount", 0 ],
			"obj-37::obj-7" : [ "devname[3]", "devname", 0 ],
			"obj-174::obj-20" : [ "devparamids[7]", "devparamids", 0 ],
			"obj-3::obj-20" : [ "devparamids[6]", "devparamids", 0 ],
			"obj-37::obj-94" : [ "#1-path[3]", "#1-path", 0 ],
			"obj-38::obj-12" : [ "devparamcount[2]", "devparamcount", 0 ],
			"obj-39::obj-7" : [ "devname[1]", "devname", 0 ],
			"obj-20::obj-20" : [ "devparamids[4]", "devparamids", 0 ],
			"obj-12::obj-20" : [ "devparamids[5]", "devparamids", 0 ],
			"obj-38::obj-94" : [ "#1-path[2]", "#1-path", 0 ],
			"obj-174::obj-12" : [ "devparamcount[7]", "devparamcount", 0 ],
			"obj-39::obj-12" : [ "devparamcount[1]", "devparamcount", 0 ],
			"obj-41::obj-20" : [ "devparamids", "devparamids", 0 ],
			"obj-41::obj-94" : [ "#1-path", "#1-path", 0 ],
			"obj-38::obj-20" : [ "devparamids[2]", "devparamids", 0 ],
			"obj-37::obj-20" : [ "devparamids[3]", "devparamids", 0 ]
		}

	}

}
